<?xml version="1.0" encoding="utf-8"?>
<svg version="1.1" xmlns:xlink="http://www.w3.org/1999/xlink" width="22px" height="21px" xmlns="http://www.w3.org/2000/svg">
  <g transform="matrix(1 0 0 1 -122 -1792 )">
    <path d="M 12.5799278846154 5.390625  C 13.2542067307692 5.984375  13.5913461538462 6.703125  13.5913461538462 7.546875  C 13.5913461538462 8.3828125  13.2542067307692 9.09765625  12.5799278846154 9.69140625  C 11.9056490384615 10.28515625  11.0969551282051 10.58203125  10.1538461538462 10.58203125  C 9.21073717948718 10.58203125  8.40204326923077 10.28515625  7.72776442307692 9.69140625  C 7.05348557692308 9.09765625  6.71634615384615 8.3828125  6.71634615384615 7.546875  C 6.71634615384615 6.703125  7.05348557692308 5.984375  7.72776442307692 5.390625  C 8.40204326923077 4.796875  9.21073717948718 4.5  10.1538461538462 4.5  C 11.0969551282051 4.5  11.9056490384615 4.796875  12.5799278846154 5.390625  Z M 12.5336538461538 10.353515625  C 12.7540064102564 10.232421875  12.8950320512821 10.15625  12.9567307692308 10.125  C 13.3621794871795 10.125  13.7257612179487 10.19140625  14.0474759615385 10.32421875  C 14.3691907051282 10.45703125  14.6336137820513 10.642578125  14.8407451923077 10.880859375  C 15.0478766025641 11.119140625  15.2219551282051 11.380859375  15.3629807692308 11.666015625  C 15.5040064102564 11.951171875  15.6097756410256 12.267578125  15.6802884615385 12.615234375  C 15.7508012820513 12.962890625  15.8014823717949 13.28515625  15.8323317307692 13.58203125  C 15.8631810897436 13.87890625  15.8786057692308 14.1875  15.8786057692308 14.5078125  C 15.8786057692308 15.03125  15.7045272435897 15.494140625  15.3563701923077 15.896484375  C 15.0082131410256 16.298828125  14.5432692307692 16.5  13.9615384615385 16.5  L 6.34615384615385 16.5  C 5.76442307692308 16.5  5.29947916666667 16.298828125  4.95132211538461 15.896484375  C 4.60316506410256 15.494140625  4.42908653846154 15.03125  4.42908653846154 14.5078125  C 4.42908653846154 14.1328125  4.44891826923077 13.767578125  4.48858173076923 13.412109375  C 4.52824519230769 13.056640625  4.60977564102564 12.671875  4.73317307692308 12.2578125  C 4.85657051282051 11.84375  5.01742788461539 11.486328125  5.21574519230769 11.185546875  C 5.4140625 10.884765625  5.69170673076923 10.6328125  6.04867788461539 10.4296875  C 6.40564903846154 10.2265625  6.81770833333333 10.125  7.28485576923077 10.125  L 7.35096153846154 10.125  C 7.41266025641026 10.15625  7.5536858974359 10.232421875  7.77403846153846 10.353515625  C 7.99439102564103 10.474609375  8.15084134615384 10.556640625  8.24338942307692 10.599609375  C 8.3359375 10.642578125  8.48137019230769 10.708984375  8.6796875 10.798828125  C 8.87800480769231 10.888671875  9.0410657051282 10.951171875  9.16887019230769 10.986328125  C 9.29667467948718 11.021484375  9.45092147435897 11.056640625  9.63161057692308 11.091796875  C 9.81229967948718 11.126953125  9.9863782051282 11.14453125  10.1538461538462 11.14453125  C 10.3213141025641 11.14453125  10.4953926282051 11.126953125  10.6760817307692 11.091796875  C 10.8567708333333 11.056640625  11.0110176282051 11.021484375  11.1388221153846 10.986328125  C 11.2666266025641 10.951171875  11.4296875 10.888671875  11.6280048076923 10.798828125  C 11.8263221153846 10.708984375  11.9717548076923 10.642578125  12.0643028846154 10.599609375  C 12.1568509615385 10.556640625  12.3133012820513 10.474609375  12.5336538461538 10.353515625  Z M 22 4.875  L 22 7.125  C 22 7.2265625  21.9581330128205 7.314453125  21.8743990384615 7.388671875  C 21.7906650641026 7.462890625  21.6915064102564 7.5  21.5769230769231 7.5  L 20.3076923076923 7.5  L 20.3076923076923 9  L 21.5769230769231 9  C 21.6915064102564 9  21.7906650641026 9.037109375  21.8743990384615 9.111328125  C 21.9581330128205 9.185546875  22 9.2734375  22 9.375  L 22 11.625  C 22 11.7265625  21.9581330128205 11.814453125  21.8743990384615 11.888671875  C 21.7906650641026 11.962890625  21.6915064102564 12  21.5769230769231 12  L 20.3076923076923 12  L 20.3076923076923 13.5  L 21.5769230769231 13.5  C 21.6915064102564 13.5  21.7906650641026 13.537109375  21.8743990384615 13.611328125  C 21.9581330128205 13.685546875  22 13.7734375  22 13.875  L 22 16.125  C 22 16.2265625  21.9581330128205 16.314453125  21.8743990384615 16.388671875  C 21.7906650641026 16.462890625  21.6915064102564 16.5  21.5769230769231 16.5  L 20.3076923076923 16.5  L 20.3076923076923 19.125  C 20.3076923076923 19.640625  20.1005608974359 20.08203125  19.6862980769231 20.44921875  C 19.2720352564103 20.81640625  18.7740384615385 21  18.1923076923077 21  L 2.11538461538462 21  C 1.53365384615385 21  1.03565705128205 20.81640625  0.621394230769231 20.44921875  C 0.20713141025641 20.08203125  0 19.640625  0 19.125  L 0 1.875  C 0 1.359375  0.20713141025641 0.917968749999999  0.621394230769231 0.550781250000001  C 1.03565705128205 0.18359375  1.53365384615385 0  2.11538461538462 0  L 18.1923076923077 0  C 18.7740384615385 0  19.2720352564103 0.18359375  19.6862980769231 0.550781250000001  C 20.1005608974359 0.917968749999999  20.3076923076923 1.359375  20.3076923076923 1.875  L 20.3076923076923 4.5  L 21.5769230769231 4.5  C 21.6915064102564 4.5  21.7906650641026 4.537109375  21.8743990384615 4.611328125  C 21.9581330128205 4.685546875  22 4.7734375  22 4.875  Z M 18.4897836538462 19.388671875  C 18.5735176282051 19.314453125  18.6153846153846 19.2265625  18.6153846153846 19.125  L 18.6153846153846 1.875  C 18.6153846153846 1.7734375  18.5735176282051 1.685546875  18.4897836538462 1.611328125  C 18.4060496794872 1.537109375  18.306891025641 1.5  18.1923076923077 1.5  L 2.11538461538462 1.5  C 2.00080128205128 1.5  1.90164262820513 1.537109375  1.81790865384615 1.611328125  C 1.73417467948718 1.685546875  1.69230769230769 1.7734375  2 1.875  L 2 19.125  C 1.69230769230769 19.2265625  1.73417467948718 19.314453125  1.81790865384615 19.388671875  C 1.90164262820513 19.462890625  2.00080128205128 19.5  2.11538461538462 19.5  L 18.1923076923077 19.5  C 18.306891025641 19.5  18.4060496794872 19.462890625  18.4897836538462 19.388671875  Z " fill-rule="nonzero" fill="#ffffff" stroke="none" transform="matrix(1 0 0 1 122 1792 )" />
  </g>
</svg>