<?xml version="1.0" encoding="utf-8"?>
<svg version="1.1" xmlns:xlink="http://www.w3.org/1999/xlink" width="61px" height="42px" xmlns="http://www.w3.org/2000/svg">
  <g transform="matrix(1 0 0 1 -281 -2932 )">
    <path d="M 57.7713665943601 17.2622950819672  C 59.5532899493854 19.6338797814208  60.5942154736081 22.4043715846995  60.8941431670282 25.5737704918033  C 61.1058568329718 27.8251366120219  60.9117859725235 29.9945355191257  60.3119305856833 32.0819672131148  C 59.7120751988431 34.1693989071038  58.8387563268257 35.9562841530055  57.6919739696312 37.4426229508197  C 56.5451916124367 38.9289617486339  55.1469992769342 40.0874316939891  53.4973969631236 40.9180327868852  C 51.8477946493131 41.7486338797814  50.1143890093999 42.0874316939891  48.297180043384 41.9344262295082  C 45.4566883586406 41.6939890710383  42.9911062906725 40.327868852459  40.9004338394794 37.8360655737705  C 38.8097613882863 35.344262295082  37.6232827187274 32.3497267759563  37.3409978308026 28.8524590163934  C 37.129284164859 26.4262295081967  37.3718727404194 24.1256830601093  38.0687635574837 21.9508196721311  C 38.7656543745481 19.775956284153  39.8109906001446 17.9125683060109  41.2047722342733 16.3606557377049  L 39.3258134490239 12.8524590163934  C 37.6321041214751 14.6010928961749  36.3000723065799 16.7213114754098  35.3297180043384 19.2131147540984  C 34.3593637020969 21.7049180327869  33.8741865509761 24.3715846994535  33.8741865509761 27.2131147540984  C 33.8741865509761 27.8032786885246  33.7109906001446 28.3114754098361  33.3845986984816 28.7377049180328  C 33.0582067968185 29.1639344262295  32.6568329718004 29.3770491803279  32.1804772234273 29.3770491803279  L 25.4056399132321 29.3770491803279  L 23.5796095444685 29.3770491803279  C 23.1738250180766 32.9617486338798  21.8594360086768 35.9562841530055  19.636442516269 38.3606557377049  C 17.4134490238612 40.7650273224044  14.8199566160521 41.9672131147541  11.8559652928416 41.9672131147541  C 8.59204627621113 41.9672131147541  5.8000723065799 40.5300546448087  3.48004338394794 37.655737704918  C 1.16001446131598 34.7814207650273  0 31.3224043715847  0 27.2786885245902  C 0 23.2349726775956  1.16001446131598 19.775956284153  3.48004338394794 16.9016393442623  C 5.8000723065799 14.0273224043716  8.59204627621113 12.5901639344262  11.8559652928416 12.5901639344262  C 13.1968185104845 12.5901639344262  14.5376717281273 12.8852459016393  15.8785249457701 13.4754098360656  L 16.5136659436009 12  C 14.343600867679 9.59562841530055  11.6618944323933 8.39344262295082  8.46854663774404 8.39344262295082  L 6.77483731019523 8.39344262295082  C 6.31612436731743 8.39344262295082  5.91916124367317 8.18579234972677  5.58394793926247 7.77049180327869  C 5.24873463485177 7.3551912568306  5.08112798264642 6.86338797814207  5.08112798264642 6.29508196721312  C 5.08112798264642 5.72677595628415  5.24873463485177 5.23497267759562  5.58394793926247 4.81967213114754  C 5.91916124367317 4.40437158469945  6.31612436731743 4.19672131147541  6.77483731019523 4.19672131147541  L 10.1622559652928 4.19672131147541  C 11.5383947939262 4.19672131147541  12.8174981923355 4.34426229508197  13.9995661605206 4.63934426229508  C 15.1816341287057 4.9344262295082  16.2093275488069 5.3551912568306  17.0826464208243 5.9016393442623  C 17.9559652928416 6.44808743169399  18.5866955892986 6.87978142076502  18.9748373101952 7.19672131147541  C 19.3629790310918 7.51366120218579  19.812870571222 7.91256830601093  20.3245119305857 9  L 33.8741865509761 9  L 36.9175704989154 8.39344262295082  L 34.6681127982646 4.19672131147541  L 28.7930585683297 4.19672131147541  C 28.2637744034707 4.19672131147541  27.8315256688359 3.95081967213115  27.4963123644252 3.45901639344262  C 27.1610990600145 2.9672131147541  27.0375994215474 2.39344262295082  27.1258134490239 1.73770491803279  C 27.1963846710051 1.23497267759562  27.399276934201 0.819672131147542  27.7344902386117 0.491803278688525  C 28.0697035430224 0.163934426229508  28.4490238611714 0  28.8724511930586 0  L 35.5678958785249 0  C 36.1501084598698 0  36.6176428054953 0.306010928961746  36.9704989154013 0.918032786885247  L 38.8229934924078 4.36065573770492  L 41.8399132321041 0.622950819672132  C 42.1751265365148 0.207650273224041  42.5809110629067 0  43.0572668112798 0  L 45.7301518438178 0  C 46.1888647866956 0  46.5858279103398 0.207650273224041  46.9210412147505 0.622950819672132  C 47.2562545191612 1.03825136612021  47.4238611713666 1.53005464480874  47.4238611713666 2.09836065573771  L 47.4238611713666 6.29508196721312  C 47.4238611713666 6.86338797814207  47.2562545191612 7.3551912568306  46.9210412147505 7.77049180327869  C 46.5858279103398 8.18579234972677  46.1888647866956 8.39344262295082  45.7301518438178 8.39344262295082  L 40.9930585683297 8.39344262295082  L 44.036442516269 14.0327868852459  C 46.3476500361533 12.655737704918  48.773535791757 12.2622950819672  51.3140997830803 12.8524590163934  C 53.8370209689082 13.4207650273224  55.9894432393348 14.8907103825137  57.7713665943601 17.2622950819672  Z M 5.87505422993492 34.6885245901639  C 7.53347794649313 36.7431693989071  9.52711496746204 37.7704918032787  11.8559652928416 37.7704918032787  C 13.8848879248012 37.7704918032787  15.6756326825741 36.9781420765027  17.2281995661605 35.3934426229508  C 18.7807664497469 33.8087431693989  19.7599421547361 31.8032786885246  20.165726681128 29.3770491803279  L 11.8559652928416 29.3770491803279  C 11.2384671005061 29.3770491803279  10.7532899493854 29.0382513661202  10.4004338394794 28.3606557377049  C 10.082863340564 27.6612021857923  10.0740419378163 26.9726775956284  10.3739696312364 26.2950819672131  L 14.2642082429501 17.2131147540984  C 13.434996384671 16.9289617486339  12.6322487346349 16.7868852459016  11.8559652928416 16.7868852459016  C 9.52711496746204 16.7868852459016  7.53347794649313 17.8142076502732  5.87505422993492 19.8688524590164  C 4.21663051337672 21.9234972677596  3.38741865509761 24.3934426229508  3.38741865509761 27.2786885245902  C 3.38741865509761 30.1639344262295  4.21663051337672 32.6338797814208  5.87505422993492 34.6885245901639  Z M 43.1366594360087 34.6885245901639  C 44.7950831525669 36.7431693989071  46.7887201735358 37.7704918032787  49.1175704989154 37.7704918032787  C 51.446420824295 37.7704918032787  53.4400578452639 36.7431693989071  55.0984815618221 34.6885245901639  C 56.7569052783803 32.6338797814208  57.5861171366594 30.1639344262295  57.5861171366594 27.2786885245902  C 57.5861171366594 24.3934426229508  56.7569052783803 21.9234972677596  55.0984815618221 19.8688524590164  C 53.4400578452639 17.8142076502732  51.446420824295 16.7868852459016  49.1175704989154 16.7868852459016  C 48.0590021691974 16.7868852459016  46.9916124367317 17.0491803278689  45.9154013015184 17.5737704918033  L 50.5201735357918 26.0983606557377  C 50.7848156182213 26.6010928961749  50.8730296456978 27.1366120218579  50.7848156182213 27.7049180327869  C 50.6966015907448 28.2732240437158  50.4584237165582 28.7103825136612  50.0702819956616 29.0163934426229  C 49.8056399132321 29.2568306010929  49.4880694143167 29.3770491803279  49.1175704989154 29.3770491803279  C 48.5000723065799 29.3770491803279  48.0325379609545 29.0601092896175  47.714967462039 28.4262295081967  L 43.1101952277657 19.9016393442623  C 41.4694143167028 21.9781420765027  40.6490238611714 24.4371584699454  40.6490238611714 27.2786885245902  C 40.6490238611714 30.1639344262295  41.4782357194505 32.6338797814208  43.1366594360087 34.6885245901639  Z " fill-rule="nonzero" fill="#ffffff" stroke="none" transform="matrix(1 0 0 1 281 2932 )" />
  </g>
</svg>