<?xml version="1.0" encoding="utf-8"?>
<svg version="1.1" xmlns:xlink="http://www.w3.org/1999/xlink" width="47px" height="39px" xmlns="http://www.w3.org/2000/svg">
  <g transform="matrix(1 0 0 1 -105 -2935 )">
    <path d="M 9.93701171875 26.154375  C 10.6560872395833 25.390625  11.015625 24.4725  11.015625 23.4  C 11.015625 22.3275  10.6560872395833 21.409375  9.93701171875 20.645625  C 9.21793619791667 19.881875  8.353515625 19.5  7.34375 19.5  C 6.333984375 19.5  5.46956380208333 19.881875  4.75048828125 20.645625  C 4.03141276041667 21.409375  3.671875 22.3275  3.671875 23.4  C 3.671875 24.4725  4.03141276041667 25.390625  4.75048828125 26.154375  C 5.46956380208333 26.918125  6.333984375 27.3  7.34375 27.3  C 8.353515625 27.3  9.21793619791667 26.918125  9.93701171875 26.154375  Z M 13.88427734375 6.898125  L 11.841796875 16  L 35.158203125 16  L 33.11572265625 6.898125  C 33.0851236979167 6.768125  32.97802734375 6.6259375  32.79443359375 6.4715625  C 32.61083984375 6.3171875  32.4501953125 6.24  32.3125 7  L 14.6875 7  C 14.5498046875 6.24  14.38916015625 6.3171875  14.20556640625 6.4715625  C 14.02197265625 6.6259375  13.9148763020833 6.768125  13.88427734375 6.898125  Z M 42.24951171875 26.154375  C 42.9685872395833 25.390625  43.328125 24.4725  43.328125 23.4  C 43.328125 22.3275  42.9685872395833 21.409375  42.24951171875 20.645625  C 41.5304361979167 19.881875  40.666015625 19.5  39.65625 19.5  C 38.646484375 19.5  37.7820638020833 19.881875  37.06298828125 20.645625  C 36.3439127604167 21.409375  35.984375 22.3275  35.984375 23.4  C 35.984375 24.4725  36.3439127604167 25.390625  37.06298828125 26.154375  C 37.7820638020833 26.918125  38.646484375 27.3  39.65625 27.3  C 40.666015625 27.3  41.5304361979167 26.918125  42.24951171875 26.154375  Z M 45.496826171875 17.1965625  C 46.4989420572917 18.2609375  47 19.54875  47 21.06  L 47 30.42  C 47 30.6475  46.93115234375 30.834375  46.79345703125 30.980625  C 46.65576171875 31.126875  46.4798177083333 31.2  46.265625 31.2  L 44.0625 31.2  L 44.0625 34.32  C 44.0625 35.62  43.6341145833333 36.725  42.77734375 37.635  C 41.9205729166667 38.545  40.8802083333333 39  39.65625 39  C 38.4322916666667 39  37.3919270833333 38.545  36.53515625 37.635  C 35.6783854166667 36.725  35.25 35.62  35.25 34.32  L 35.25 31  L 11.75 31  L 11.75 34.32  C 11.75 35.62  11.3216145833333 36.725  10.46484375 37.635  C 9.60807291666667 38.545  8.56770833333333 39  7.34375 39  C 6.11979166666667 39  5.07942708333333 38.545  4.22265625 37.635  C 3.36588541666667 36.725  2.9375 35.62  2.9375 34.32  L 2.9375 31.2  L 0.734375 31.2  C 0.520182291666667 31.2  0.34423828125 31.126875  0.20654296875 30.980625  C 0.06884765625 30.834375  0 30.6475  0 30.42  L 0 21.06  C 0 19.54875  0.501057942708333 18.2609375  1.503173828125 17.1965625  C 2.50528971354167 16.1321875  3.7177734375 15.6  5.140625 15.6  L 5.783203125 15.6  L 8.19287109375 5.386875  C 8.54475911458333 3.859375  9.34033203125 2.5796875  10.57958984375 1.5478125  C 11.81884765625 0.515937499999998  13.1881510416667 0  14.6875 0  L 32.3125 0  C 33.8118489583333 0  35.18115234375 0.515937499999998  36.42041015625 1.5478125  C 37.65966796875 2.5796875  38.4552408854167 3.859375  38.80712890625 5.386875  L 41.216796875 15.6  L 41.859375 15.6  C 43.2822265625 15.6  44.4947102864583 16.1321875  45.496826171875 17.1965625  Z " fill-rule="nonzero" fill="#ffffff" stroke="none" transform="matrix(1 0 0 1 105 2935 )" />
  </g>
</svg>