<?xml version="1.0" encoding="utf-8"?>
<svg version="1.1" xmlns:xlink="http://www.w3.org/1999/xlink" width="30px" height="30px" xmlns="http://www.w3.org/2000/svg">
  <g transform="matrix(1 0 0 1 -774 -3500 )">
    <path d="M 789 3500  C 797.4 3500  804 3506.6  804 3515  C 804 3523.4  797.4 3530  789 3530  C 780.6 3530  774 3523.4  774 3515  C 774 3506.6  780.6 3500  789 3500  Z " fill-rule="nonzero" fill="#02a7f0" stroke="none" />
    <path d="M 789 3500.5  C 797.12 3500.5  803.5 3506.88  803.5 3515  C 803.5 3523.12  797.12 3529.5  789 3529.5  C 780.88 3529.5  774.5 3523.12  774.5 3515  C 774.5 3506.88  780.88 3500.5  789 3500.5  Z " stroke-width="1" stroke="#797979" fill="none" />
  </g>
</svg>