<?xml version="1.0" encoding="utf-8"?>
<svg version="1.1" xmlns:xlink="http://www.w3.org/1999/xlink" width="30px" height="30px" xmlns="http://www.w3.org/2000/svg">
  <g transform="matrix(1 0 0 1 -687 -3500 )">
    <path d="M 702 3500  C 710.4 3500  717 3506.6  717 3515  C 717 3523.4  710.4 3530  702 3530  C 693.6 3530  687 3523.4  687 3515  C 687 3506.6  693.6 3500  702 3500  Z " fill-rule="nonzero" fill="#ffff00" stroke="none" />
    <path d="M 702 3500.5  C 710.12 3500.5  716.5 3506.88  716.5 3515  C 716.5 3523.12  710.12 3529.5  702 3529.5  C 693.88 3529.5  687.5 3523.12  687.5 3515  C 687.5 3506.88  693.88 3500.5  702 3500.5  Z " stroke-width="1" stroke="#797979" fill="none" />
  </g>
</svg>