<?xml version="1.0" encoding="utf-8"?>
<svg version="1.1" xmlns:xlink="http://www.w3.org/1999/xlink" width="30px" height="30px" xmlns="http://www.w3.org/2000/svg">
  <g transform="matrix(1 0 0 1 -732 -3500 )">
    <path d="M 747 3500  C 755.4 3500  762 3506.6  762 3515  C 762 3523.4  755.4 3530  747 3530  C 738.6 3530  732 3523.4  732 3515  C 732 3506.6  738.6 3500  747 3500  Z " fill-rule="nonzero" fill="#95f204" stroke="none" />
    <path d="M 747 3500.5  C 755.12 3500.5  761.5 3506.88  761.5 3515  C 761.5 3523.12  755.12 3529.5  747 3529.5  C 738.88 3529.5  732.5 3523.12  732.5 3515  C 732.5 3506.88  738.88 3500.5  747 3500.5  Z " stroke-width="1" stroke="#797979" fill="none" />
  </g>
</svg>