<?xml version="1.0" encoding="utf-8"?>
<svg version="1.1" xmlns:xlink="http://www.w3.org/1999/xlink" width="35px" height="26px" xmlns="http://www.w3.org/2000/svg">
  <g transform="matrix(1 0 0 1 -599 -3548 )">
    <path d="M 7.39990234375 17.43625  C 7.93538411458333 16.9270833333333  8.203125 16.315  8.203125 15.6  C 8.203125 14.885  7.93538411458333 14.2729166666667  7.39990234375 13.76375  C 6.86442057291667 13.2545833333333  6.220703125 13  5.46875 13  C 4.716796875 13  4.07307942708333 13.2545833333333  3.53759765625 13.76375  C 3.00211588541667 14.2729166666667  2.734375 14.885  2.734375 15.6  C 2.734375 16.315  3.00211588541667 16.9270833333333  3.53759765625 17.43625  C 4.07307942708333 17.9454166666667  4.716796875 18.2  5.46875 18.2  C 6.220703125 18.2  6.86442057291667 17.9454166666667  7.39990234375 17.43625  Z M 10.33935546875 4.59875  L 8.818359375 10.4  L 26.181640625 10.4  L 24.66064453125 4.59875  C 24.6378580729167 4.51208333333333  24.55810546875 4.41729166666666  24.42138671875 4.314375  C 24.28466796875 4.21145833333333  24.1650390625 4.16  24.0625 4.16  L 10.9375 4.16  C 10.8349609375 4.16  10.71533203125 4.21145833333333  10.57861328125 4.314375  C 10.44189453125 4.41729166666666  10.3621419270833 4.51208333333333  10.33935546875 4.59875  Z M 31.46240234375 17.43625  C 31.9978841145833 16.9270833333333  32.265625 16.315  32.265625 15.6  C 32.265625 14.885  31.9978841145833 14.2729166666667  31.46240234375 13.76375  C 30.9269205729167 13.2545833333333  30.283203125 13  29.53125 13  C 28.779296875 13  28.1355794270833 13.2545833333333  27.60009765625 13.76375  C 27.0646158854167 14.2729166666667  26.796875 14.885  26.796875 15.6  C 26.796875 16.315  27.0646158854167 16.9270833333333  27.60009765625 17.43625  C 28.1355794270833 17.9454166666667  28.779296875 18.2  29.53125 18.2  C 30.283203125 18.2  30.9269205729167 17.9454166666667  31.46240234375 17.43625  Z M 33.880615234375 11.464375  C 34.6268717447917 12.1739583333333  35 13.0325  35 14.04  L 35 20.28  C 35 20.4316666666667  34.94873046875 20.55625  34.84619140625 20.65375  C 34.74365234375 20.75125  34.6126302083333 20.8  34.453125 20.8  L 32.8125 20.8  L 32.8125 22.88  C 32.8125 23.7466666666667  32.4934895833333 24.4833333333333  31.85546875 25.09  C 31.2174479166667 25.6966666666667  30.4427083333333 26  29.53125 26  C 28.6197916666667 26  27.8450520833333 25.6966666666667  27.20703125 25.09  C 26.5690104166667 24.4833333333333  26.25 23.7466666666667  26.25 22.88  L 26.25 20.8  L 8.75 20.8  L 8.75 22.88  C 8.75 23.7466666666667  8.43098958333333 24.4833333333333  7.79296875 25.09  C 7.15494791666667 25.6966666666667  6.38020833333333 26  5.46875 26  C 4.55729166666667 26  3.78255208333333 25.6966666666667  3.14453125 25.09  C 2.50651041666667 24.4833333333333  2.1875 23.7466666666667  2.1875 22.88  L 2.1875 20.8  L 0.546875 20.8  C 0.387369791666667 20.8  0.25634765625 20.75125  0.15380859375 20.65375  C 0.05126953125 20.55625  0 20.4316666666667  0 20.28  L 0 14.04  C 0 13.0325  0.373128255208333 12.1739583333333  1.119384765625 11.464375  C 1.86564127604167 10.7547916666667  2.7685546875 10.4  3.828125 10.4  L 4.306640625 10.4  L 6.10107421875 3.59125  C 6.36311848958333 2.57291666666666  6.95556640625 1.71979166666666  7.87841796875 1.031875  C 8.80126953125 0.343958333333332  9.82096354166667 0  10.9375 0  L 24.0625 0  C 25.1790364583333 0  26.19873046875 0.343958333333332  27.12158203125 1.031875  C 28.04443359375 1.71979166666666  28.6368815104167 2.57291666666666  28.89892578125 3.59125  L 30.693359375 10.4  L 31.171875 10.4  C 32.2314453125 10.4  33.1343587239583 10.7547916666667  33.880615234375 11.464375  Z " fill-rule="nonzero" fill="#000000" stroke="none" transform="matrix(1 0 0 1 599 3548 )" />
  </g>
</svg>