<?xml version="1.0" encoding="utf-8"?>
<svg version="1.1" xmlns:xlink="http://www.w3.org/1999/xlink" width="41px" height="26px" xmlns="http://www.w3.org/2000/svg">
  <g transform="matrix(1 0 0 1 -650 -3548 )">
    <path d="M 11.5846354166667 21.92734375  C 12.6286168981482 20.9455729166667  13.287037037037 19.703125  13.5598958333333 18.2  L 7.97222222222222 18.2  C 7.49768518518519 18.2  7.15661168981482 17.9630208333333  6.94900173611111 17.4890625  C 6.74139178240741 17.0151041666667  6.77994791666667 16.5614583333333  7.06467013888889 16.128125  L 10.41015625 11.0296875  C 9.63903356481481 10.6098958333333  8.82638888888889 10.4  7.97222222222222 10.4  C 6.40625 10.4  5.06568287037037 11.0364583333333  3.95052083333333 12.309375  C 2.8353587962963 13.5822916666667  2.27777777777778 15.1125  2.27777777777778 16.9  C 2.27777777777778 18.6875  2.8353587962963 20.2177083333333  3.95052083333333 21.490625  C 5.06568287037037 22.7635416666667  6.40625 23.4  7.97222222222222 23.4  C 9.33651620370371 23.4  10.5406539351852 22.9091145833333  11.5846354166667 21.92734375  Z M 12.2252604166667 12.59375  L 10.25 15.6  L 13.5598958333333 15.6  C 13.3463541666667 14.4489583333333  12.9014756944444 13.446875  12.2252604166667 12.59375  Z M 15.85546875 15.6  L 18.7916666666667 15.6  L 23.9166666666667 7.8  L 15.375 7.8  L 13.61328125 10.48125  C 14.8589409722222 11.8760416666667  15.6063368055556 13.5822916666667  15.85546875 15.6  Z M 37.0494791666667 21.490625  C 38.1646412037037 20.2177083333333  38.7222222222222 18.6875  38.7222222222222 16.9  C 38.7222222222222 15.1125  38.1646412037037 13.5822916666667  37.0494791666667 12.309375  C 35.9343171296296 11.0364583333333  34.59375 10.4  33.0277777777778 10.4  C 32.3159722222222 10.4  31.5982349537037 10.5625  30.8745659722222 10.8875  L 33.9709201388889 16.16875  C 34.1488715277778 16.4802083333333  34.2081886574074 16.8119791666667  34.1488715277778 17.1640625  C 34.0895543981482 17.5161458333333  33.9293981481482 17.7869791666667  33.6684027777778 17.9765625  C 33.4904513888889 18.1255208333333  33.2769097222222 18.2  33.0277777777778 18.2  C 32.6125578703704 18.2  32.2981770833333 18.0036458333333  32.0846354166667 17.6109375  L 28.98828125 12.3296875  C 27.8849826388889 13.6161458333333  27.3333333333333 15.1395833333333  27.3333333333333 16.9  C 27.3333333333333 18.6875  27.8909143518519 20.2177083333333  29.0060763888889 21.490625  C 30.1212384259259 22.7635416666667  31.4618055555556 23.4  33.0277777777778 23.4  C 34.59375 23.4  35.9343171296296 22.7635416666667  37.0494791666667 21.490625  Z M 38.6599392361111 10.47109375  C 40.2199797453704 12.2518229166667  41 14.3947916666667  41 16.9  C 41 19.4052083333333  40.2199797453704 21.5481770833333  38.6599392361111 23.32890625  C 37.0998987268519 25.1096354166667  35.2225115740741 26  33.0277777777778 26  C 30.8330439814815 26  28.9556568287037 25.1096354166667  27.3956163194444 23.32890625  C 25.8355758101852 21.5481770833333  25.0555555555556 19.4052083333333  25.0555555555556 16.9  C 25.0555555555556 15.5864583333333  25.2898582175926 14.3440104166667  25.7584635416667 13.17265625  C 26.2270688657407 12.0013020833333  26.8765914351852 10.9890625  27.70703125 10.1359375  L 26.5503472222222 8.1453125  L 20.2686631944444 17.671875  C 20.0551215277778 18.0239583333333  19.7526041666667 18.2  19.3611111111111 18.2  L 15.85546875 18.2  C 15.5826099537037 20.4208333333333  14.6987847222222 22.2760416666667  13.2039930555556 23.765625  C 11.7092013888889 25.2552083333333  9.96527777777778 26  7.97222222222222 26  C 5.77748842592592 26  3.90010127314815 25.1096354166667  2.34006076388889 23.32890625  C 0.78002025462963 21.5481770833333  0 19.4052083333333  0 16.9  C 0 14.3947916666667  0.78002025462963 12.2518229166667  2.34006076388889 10.47109375  C 3.90010127314815 8.69036458333333  5.77748842592592 7.8  7.97222222222222 7.8  C 9.32465277777778 7.8  10.5999710648148 8.17239583333333  11.7981770833333 8.9171875  L 14.2361111111111 5.2  L 10.25 5.2  C 9.94155092592593 5.2  9.6746238425926 5.07135416666666  9.44921875 4.8140625  C 9.22381365740741 4.55677083333333  9.11111111111111 4.25208333333333  9.11111111111111 3.9  C 9.11111111111111 3.54791666666666  9.22381365740741 3.24322916666666  9.44921875 2.9859375  C 9.6746238425926 2.72864583333333  9.94155092592593 2.6  10.25 2.6  L 17.0833333333333 2.6  L 17.0833333333333 5.2  L 24.82421875 5.2  L 23.3116319444444 2.6  L 19.3611111111111 2.6  C 19.052662037037 2.6  18.7857349537037 2.47135416666666  18.5603298611111 2.2140625  C 18.3349247685185 1.95677083333333  18.2222222222222 1.65208333333333  18.2222222222222 1.3  C 18.2222222222222 0.947916666666665  18.3349247685185 0.643229166666665  18.5603298611111 0.385937500000001  C 18.7857349537037 0.128645833333332  19.052662037037 0  19.3611111111111 0  L 23.9166666666667 0  C 24.3081597222222 0  24.6225405092593 0.189583333333331  24.8598090277778 0.568749999999999  L 29.6111111111111 8.69375  C 30.6906828703704 8.09791666666666  31.8295717592593 7.8  33.0277777777778 7.8  C 35.2225115740741 7.8  37.0998987268519 8.69036458333333  38.6599392361111 10.47109375  Z " fill-rule="nonzero" fill="#000000" stroke="none" transform="matrix(1 0 0 1 650 3548 )" />
  </g>
</svg>