<?xml version="1.0" encoding="utf-8"?>
<svg version="1.1" xmlns:xlink="http://www.w3.org/1999/xlink" width="27px" height="31px" xmlns="http://www.w3.org/2000/svg">
  <g transform="matrix(1 0 0 1 -110 -1271 )">
    <path d="M 21.8861241217799 19.3598548297041  C 22.3656323185012 18.1309324399777  22.6053864168618 16.8414293690676  22.6053864168618 15.4913456169738  C 22.6053864168618 14.14126186488  22.3656323185012 12.8517587939698  21.8861241217799 11.6228364042434  C 21.4066159250585 10.393914014517  20.7584894613583 9.3323096966313  19.9417447306792 8.43802345058626  C 19.125 7.54373720454122  18.1554449648712 6.83407779638935  17.0330796252927 6.30904522613065  C 15.9107142857143 5.78401265587195  14.7330210772834 5.5214963707426  13.5 5.5214963707426  C 12.2669789227166 5.5214963707426  11.0892857142857 5.78401265587195  9.96692037470726 6.30904522613065  C 8.84455503512881 6.83407779638935  7.875 7.54373720454122  7.05825526932084 8.43802345058626  C 6.24151053864169 9.3323096966313  5.59338407494145 10.393914014517  5.11387587822014 11.6228364042434  C 4.63436768149883 12.8517587939698  4.39461358313817 14.14126186488  4.39461358313817 15.4913456169738  C 4.39461358313817 16.8414293690676  4.63436768149883 18.1309324399777  5.11387587822014 19.3598548297041  C 5.59338407494145 20.5887772194305  6.24151053864169 21.6503815373162  7.05825526932084 22.5446677833613  C 7.875 23.4389540294063  8.84455503512881 24.1486134375582  9.96692037470726 24.6736460078169  C 11.0892857142857 25.1986785780756  12.2669789227166 25.4611948632049  13.5 25.4611948632049  C 14.7330210772834 25.4611948632049  15.9107142857143 25.1986785780756  17.0330796252927 24.6736460078169  C 18.1554449648712 24.1486134375582  19.125 23.4389540294063  19.9417447306792 22.5446677833613  C 20.7584894613583 21.6503815373162  21.4066159250585 20.5887772194305  21.8861241217799 19.3598548297041  Z M 26.9051522248244 19.78391959799  C 27 19.9223897264098  27.0210772833724 20.0897077982505  26.9683840749415 20.285873813512  C 26.9262295081967 20.4589614740369  26.8208430913349 20.5743532477201  26.652224824356 20.6320491345617  L 22.036299765808 22.2936906756002  L 22.036299765808 27.5901730876605  C 22.036299765808 27.7747999255537  21.9677985948478 27.9248092313419  21.8307962529274 28.0402010050251  C 21.6727166276347 28.1555927787084  21.519906323185 28.178671133445  21.3723653395785 28.1094360692351  L 16.7564402810304 26.4824120603015  L 13.9110070257611 30.7749860413177  C 13.8056206088993 30.9249953471059  13.6686182669789 31  13.5 31  C 13.3313817330211 31  13.1943793911007 30.9249953471059  13.0889929742389 30.7749860413177  L 10.2435597189696 26.4824120603015  L 5.62763466042155 28.1094360692351  C 5.48009367681499 28.178671133445  5.32728337236534 28.1555927787084  5.1692037470726 28.0402010050251  C 5.03220140515223 27.9248092313419  4.96370023419204 27.7747999255537  4.96370023419204 27.5901730876605  L 4.96370023419204 22.2936906756002  L 0.347775175644028 20.6320491345617  C 0.179156908665105 20.5743532477201  0.0737704918032787 20.4589614740369  0.031615925058548 20.285873813512  C -0.0210772833723653 20.0897077982505  0 19.9223897264098  0.094847775175644 19.78391959799  L 2.94028103044496 15.4913456169738  L 0.094847775175644 11.1987716359576  C 0 11.0487623301694  -0.0210772833723653 10.8814442583287  0.031615925058548 10.6968174204355  C 0.0737704918032787 10.5237297599107  0.179156908665105 10.4083379862274  0.347775175644028 10.3506420993858  L 4.96370023419204 8.68900055834729  L 4.96370023419204 3.39251814628699  C 4.96370023419204 3.20789130839382  5.03220140515223 3.05788200260562  5.1692037470726 2.94249022892239  C 5.32728337236534 2.82709845523916  5.48009367681499 2.80402010050251  5.62763466042155 2.87325516471245  L 10.2435597189696 4.50027917364601  L 13.0889929742389 0.207705192629814  C 13.1838407494145 0.069235064209937  13.3208430913349 0  13.5 0  C 13.6791569086651 0  13.8161592505855 0.069235064209937  13.9110070257611 0.207705192629814  L 16.7564402810304 4.50027917364601  L 21.3723653395785 2.87325516471245  C 21.519906323185 2.80402010050251  21.6727166276347 2.82709845523916  21.8307962529274 2.94249022892239  C 21.9677985948478 3.05788200260562  22.036299765808 3.20789130839382  22.036299765808 3.39251814628699  L 22.036299765808 8.68900055834729  L 26.652224824356 10.3506420993858  C 26.8208430913349 10.4083379862274  26.9262295081967 10.5237297599107  26.9683840749415 10.6968174204355  C 27.0210772833724 10.8814442583287  27 11.0487623301694  26.9051522248244 11.1987716359576  L 24.059718969555 15.4913456169738  L 26.9051522248244 19.78391959799  Z " fill-rule="nonzero" fill="#000000" stroke="none" transform="matrix(1 0 0 1 110 1271 )" />
  </g>
</svg>