<?xml version="1.0" encoding="utf-8"?>
<svg version="1.1" xmlns:xlink="http://www.w3.org/1999/xlink" width="30px" height="30px" xmlns="http://www.w3.org/2000/svg">
  <g transform="matrix(1 0 0 1 -599 -3500 )">
    <path d="M 614 3500  C 622.4 3500  629 3506.6  629 3515  C 629 3523.4  622.4 3530  614 3530  C 605.6 3530  599 3523.4  599 3515  C 599 3506.6  605.6 3500  614 3500  Z " fill-rule="nonzero" fill="#d9001b" stroke="none" />
    <path d="M 614 3500.5  C 622.12 3500.5  628.5 3506.88  628.5 3515  C 628.5 3523.12  622.12 3529.5  614 3529.5  C 605.88 3529.5  599.5 3523.12  599.5 3515  C 599.5 3506.88  605.88 3500.5  614 3500.5  Z " stroke-width="1" stroke="#797979" fill="none" />
  </g>
</svg>