<?xml version="1.0" encoding="utf-8"?>
<svg version="1.1" xmlns:xlink="http://www.w3.org/1999/xlink" width="45px" height="45px" xmlns="http://www.w3.org/2000/svg">
  <g transform="matrix(1 0 0 1 -103 -3169 )">
    <path d="M 125.5 3169  C 138.1 3169  148 3178.9  148 3191.5  C 148 3204.1  138.1 3214  125.5 3214  C 112.9 3214  103 3204.1  103 3191.5  C 103 3178.9  112.9 3169  125.5 3169  Z " fill-rule="nonzero" fill="#ffffff" stroke="none" />
    <path d="M 125.5 3169.5  C 137.82 3169.5  147.5 3179.18  147.5 3191.5  C 147.5 3203.82  137.82 3213.5  125.5 3213.5  C 113.18 3213.5  103.5 3203.82  103.5 3191.5  C 103.5 3179.18  113.18 3169.5  125.5 3169.5  Z " stroke-width="1" stroke="#000000" fill="none" />
  </g>
</svg>