<?xml version="1.0" encoding="utf-8"?>
<svg version="1.1" xmlns:xlink="http://www.w3.org/1999/xlink" width="23px" height="29px" xmlns="http://www.w3.org/2000/svg">
  <g transform="matrix(1 0 0 1 -734 -415 )">
    <path d="M 22.6048109965636 13.8316633266533  C 22.8682703321879 14.0253841015364  23 14.248162992652  23 14.5  C 23 14.751837007348  22.8682703321879 14.9746158984636  22.6048109965636 15.1683366733467  L 4.18900343642612 28.7094188376754  C 3.92554410080183 28.9031396125585  3.62256586483391 29  3.28006872852234 29  C 2.93757159221077 29  2.63459335624284 28.9031396125585  2.37113402061856 28.7094188376754  L 0.395189003436426 27.2565130260521  C 0.131729667812142 27.062792251169  0 26.8400133600534  0 26.5881763527054  C 0 26.3363393453574  0.131729667812142 26.1135604542418  0.395189003436426 25.9198396793587  L 15.926116838488 14.5  L 0.395189003436426 3.08016032064128  C 0.131729667812142 2.88643954575818  0 2.66366065464262  0 2.41182364729459  C 0 2.15998663994656  0.131729667812142 1.93720774883099  0.395189003436426 1.74348697394789  L 2.37113402061856 0.29058116232465  C 2.63459335624284 0.0968603874415488  2.93757159221077 0  3.28006872852234 0  C 3.62256586483391 0  3.92554410080183 0.0968603874415488  4.18900343642612 0.29058116232465  L 22.6048109965636 13.8316633266533  Z " fill-rule="nonzero" fill="#ffffff" stroke="none" transform="matrix(1 0 0 1 734 415 )" />
  </g>
</svg>