<?xml version="1.0" encoding="utf-8"?>
<svg version="1.1" xmlns:xlink="http://www.w3.org/1999/xlink" width="30px" height="30px" xmlns="http://www.w3.org/2000/svg">
  <g transform="matrix(1 0 0 1 -818 -3500 )">
    <path d="M 833 3500  C 841.4 3500  848 3506.6  848 3515  C 848 3523.4  841.4 3530  833 3530  C 824.6 3530  818 3523.4  818 3515  C 818 3506.6  824.6 3500  833 3500  Z " fill-rule="nonzero" fill="#000000" stroke="none" />
    <path d="M 833 3500.5  C 841.12 3500.5  847.5 3506.88  847.5 3515  C 847.5 3523.12  841.12 3529.5  833 3529.5  C 824.88 3529.5  818.5 3523.12  818.5 3515  C 818.5 3506.88  824.88 3500.5  833 3500.5  Z " stroke-width="1" stroke="#797979" fill="none" />
  </g>
</svg>