<?xml version="1.0" encoding="utf-8"?>
<svg version="1.1" xmlns:xlink="http://www.w3.org/1999/xlink" width="30px" height="26px" xmlns="http://www.w3.org/2000/svg">
  <g transform="matrix(1 0 0 1 -704 -3548 )">
    <path d="M 6.767578125 18.9559151785714  C 7.255859375 18.5931919642857  7.5 18.155505952381  7.5 17.6428571428571  C 7.5 17.1302083333333  7.255859375 16.6925223214286  6.767578125 16.3297991071429  C 6.279296875 15.9670758928571  5.69010416666667 15.7857142857143  5 15.7857142857143  C 4.30989583333333 15.7857142857143  3.720703125 15.9670758928571  3.232421875 16.3297991071429  C 2.744140625 16.6925223214286  2.5 17.1302083333333  2.5 17.6428571428571  C 2.5 18.155505952381  2.744140625 18.5931919642857  3.232421875 18.9559151785714  C 3.720703125 19.3186383928571  4.30989583333333 19.5  5 19.5  C 5.69010416666667 19.5  6.279296875 19.3186383928571  6.767578125 18.9559151785714  Z M 26.767578125 18.9559151785714  C 27.255859375 18.5931919642857  27.5 18.155505952381  27.5 17.6428571428571  C 27.5 17.1302083333333  27.255859375 16.6925223214286  26.767578125 16.3297991071429  C 26.279296875 15.9670758928571  25.6901041666667 15.7857142857143  25 15.7857142857143  C 24.3098958333333 15.7857142857143  23.720703125 15.9670758928571  23.232421875 16.3297991071429  C 22.744140625 16.6925223214286  22.5 17.1302083333333  22.5 17.6428571428571  C 22.5 18.155505952381  22.744140625 18.5931919642857  23.232421875 18.9559151785714  C 23.720703125 19.3186383928571  24.3098958333333 19.5  25 19.5  C 25.6901041666667 19.5  26.279296875 19.3186383928571  26.767578125 18.9559151785714  Z M 26.328125 12.6662946428571  C 26.5755208333333 12.4438244047619  26.6666666666667 12.1875  26.6015625 11.8973214285714  L 25.1953125 6.32589285714286  C 25.1302083333333 6.10342261904762  24.9837239583333 5.92206101190476  24.755859375 5.78180803571428  C 24.5279947916667 5.64155505952381  24.2643229166667 5.57142857142857  23.96484375 6  L 6.03515625 6  C 5.73567708333333 5.57142857142857  5.47200520833333 5.64155505952381  5.244140625 5.78180803571428  C 5.01627604166667 5.92206101190476  4.86979166666667 6.10342261904762  4.8046875 6.32589285714286  L 3.3984375 11.8973214285714  C 3.33333333333333 12.1875  3.42447916666667 12.4438244047619  3.671875 12.6662946428571  C 3.91927083333333 12.8887648809524  4.23828125 13  4.62890625 13  L 25.37109375 13  C 25.76171875 13  26.0807291666667 12.8887648809524  26.328125 12.6662946428571  Z M 21.9140625 3.51116071428572  C 22.0963541666667 3.37574404761904  22.1875 3.21130952380952  22.1875 3.01785714285714  C 22.1875 2.82440476190476  22.0963541666667 2.65997023809524  21.9140625 2.52455357142857  C 21.7317708333333 2.3891369047619  21.5104166666667 2.32142857142857  21.25 2.32142857142857  L 8.75 2.32142857142857  C 8.48958333333333 2.32142857142857  8.26822916666667 2.3891369047619  8.0859375 2.52455357142857  C 7.90364583333333 2.65997023809524  7.8125 2.82440476190476  7.8125 3.01785714285714  C 7.8125 3.21130952380952  7.90364583333333 3.37574404761904  8.0859375 3.51116071428572  C 8.26822916666667 3.64657738095238  8.48958333333333 3.71428571428572  8.75 4  L 21.25 4  C 21.5104166666667 3.71428571428572  21.7317708333333 3.64657738095238  21.9140625 3.51116071428572  Z M 29.55078125 10.3013392857143  C 29.8502604166667 11.2879464285714  30 12.366443452381  30 13.5368303571429  L 30 22.2857142857143  L 27.5 22.2857142857143  L 27.5 24.1428571428571  C 27.5 24.655505952381  27.255859375 25.0931919642857  26.767578125 25.4559151785714  C 26.279296875 25.8186383928571  25.6901041666667 26  25 26  C 24.3098958333333 26  23.720703125 25.8186383928571  23.232421875 25.4559151785714  C 22.744140625 25.0931919642857  22.5 24.655505952381  22.5 24.1428571428571  L 22.5 22  L 7.5 22  L 7.5 24.1428571428571  C 7.5 24.655505952381  7.255859375 25.0931919642857  6.767578125 25.4559151785714  C 6.279296875 25.8186383928571  5.69010416666667 26  5 26  C 4.30989583333333 26  3.720703125 25.8186383928571  3.232421875 25.4559151785714  C 2.744140625 25.0931919642857  2.5 24.655505952381  2.5 24.1428571428571  L 2.5 22.2857142857143  L 0 22.2857142857143  L 0 13.5368303571429  C 0 12.4534970238095  0.162760416666667 11.375  0.48828125 10.3013392857143  L 2.5 3.71428571428572  C 2.6171875 2.95982142857143  3.251953125 2.29724702380952  4.404296875 1.7265625  C 5.556640625 1.15587797619047  7.05403645833333 0.725446428571428  8.896484375 0.435267857142856  C 10.7389322916667 0.145089285714284  12.7734375 0  15 0  C 17.2265625 0  19.2610677083333 0.145089285714284  21.103515625 0.435267857142856  C 22.9459635416667 0.725446428571428  24.443359375 1.15587797619047  25.595703125 1.7265625  C 26.748046875 2.29724702380952  27.3828125 2.95982142857143  27.5 3.71428571428572  L 29.55078125 10.3013392857143  Z " fill-rule="nonzero" fill="#000000" stroke="none" transform="matrix(1 0 0 1 704 3548 )" />
  </g>
</svg>