<?xml version="1.0" encoding="utf-8"?>
<svg version="1.1" xmlns:xlink="http://www.w3.org/1999/xlink" width="43px" height="24px" xmlns="http://www.w3.org/2000/svg">
  <g transform="matrix(1 0 0 1 -752 -3548 )">
    <path d="M 40.7240780911063 9.86416861826698  C 41.9801879971077 11.2193598750976  42.7139551699205 12.8024980483997  42.9253796095445 14.6135831381733  C 43.0746203904555 15.9000780640125  42.9378163412871 17.1397345823575  42.514967462039 18.3325526932084  C 42.092118582791 19.5253708040593  41.4765003615329 20.5464480874317  40.6681127982646 21.3957845433255  C 39.8597252349964 22.2451209992194  38.8741142443962 22.9071038251366  37.7112798264642 23.3817330210773  C 36.5484454085322 23.856362217018  35.3265365148228 24.0499609679938  34.0455531453362 23.9625292740047  C 32.0432393347795 23.8251366120219  30.3052060737527 23.0444964871194  28.831453362256 21.6206088992974  C 27.3577006507592 20.1967213114754  26.5213304410701 18.4855581576893  26.3223427331887 16.4871194379391  C 26.1731019522777 15.1007025761124  26.3441070137383 13.7861046057767  26.8353579175705 12.5433255269321  C 27.3266088214028 11.3005464480874  28.0634851771511 10.2357533177205  29.0459869848156 9.34894613583138  L 27.7214750542299 7.34426229508197  C 26.5275488069414 8.34348165495706  25.588575560376 9.55503512880562  24.9045553145336 10.9789227166276  C 24.2205350686913 12.4028103044496  23.8785249457701 13.9266198282592  23.8785249457701 15.5503512880562  C 23.8785249457701 15.8875878220141  23.7634851771511 16.1779859484778  23.5334056399132 16.4215456674473  C 23.3033261026753 16.6651053864169  23.0203904555315 16.7868852459016  22.6845986984816 16.7868852459016  L 17.9088937093275 16.7868852459016  L 16.6216919739696 16.7868852459016  C 16.3356471438901 18.8352849336456  15.4091106290672 20.5464480874317  13.8420824295011 21.92037470726  C 12.2750542299349 23.2943013270882  10.4468546637744 23.9812646370023  8.35748373101952 23.9812646370023  C 6.05668835864064 23.9812646370023  4.088575560376 23.160031225605  2.4531453362256 21.5175644028103  C 0.817715112075199 19.8750975800156  0 17.8985167837627  0 15.5878220140515  C 0 13.2771272443404  0.817715112075199 11.3005464480874  2.4531453362256 9.65807962529274  C 4.088575560376 8.01561280249805  6.05668835864064 7.1943793911007  8.35748373101952 7.1943793911007  C 9.30267534345626 7.1943793911007  10.247866955893 7.36299765807963  11.1930585683297 7.70023419203747  L 11.6407809110629 6.85714285714286  C 10.1110629067245 5.4832162373146  8.22067968185105 4.79625292740047  5.96963123644252 4.79625292740047  L 4.77570498915401 4.79625292740047  C 4.45234996384671 4.79625292740047  4.17252349963847 4.6775956284153  3.93622559652928 4.44028103044496  C 3.6999276934201 4.20296643247463  3.58177874186551 3.92193598750976  3.58177874186551 3.59718969555035  C 3.58177874186551 3.27244340359094  3.6999276934201 2.99141295862607  3.93622559652928 2.75409836065574  C 4.17252349963847 2.5167837626854  4.45234996384671 2.39812646370023  4.77570498915401 2.39812646370023  L 7.16355748373102 2.39812646370023  C 8.13362255965293 2.39812646370023  9.0352856109906 2.4824355971897  9.86854663774403 2.65105386416862  C 10.7018076644975 2.81967213114754  11.4262472885033 3.06010928961749  12.0418655097614 3.37236533957846  C 12.6574837310195 3.68462138953942  13.1020968908171 3.93130366900858  13.375704989154 4.11241217798595  C 13.649313087491 4.29352068696331  13.966449746927 4.52146760343481  14.327114967462 4.79625292740047  L 23.8785249457701 4.79625292740047  L 26.0238611713666 4.79625292740047  L 24.4381778741866 2.39812646370023  L 20.2967462039046 2.39812646370023  C 19.9236442516269 2.39812646370023  19.6189443239335 2.2576112412178  19.3826464208243 1.97658079625293  C 19.1463485177151 1.69555035128806  19.059291395517 1.36768149882904  19.1214750542299 0.992974238875879  C 19.1712219812003 0.705698672911785  19.3142443962401 0.468384074941453  19.5505422993492 0.281030444964872  C 19.7868402024584 0.0936768149882905  20.0542299349241 0  20.3527114967462 0  L 25.0724511930586 0  C 25.482863340564 0  25.8124367317426 0.17486338797814  26.0611713665944 0.524590163934427  L 27.3670281995662 2.49180327868852  L 29.4937093275488 0.355971896955504  C 29.730007230658 0.118657298985166  30.0160520607375 0  30.3518438177874 0  L 32.2360086767896 0  C 32.5593637020969 0  32.8391901663051 0.118657298985166  33.0754880694143 0.355971896955504  C 33.3117859725235 0.593286494925836  33.4299349240781 0.874316939890708  33.4299349240781 1.19906323185012  L 33.4299349240781 3.59718969555035  C 33.4299349240781 3.92193598750976  33.3117859725235 4.20296643247463  33.0754880694143 4.44028103044496  C 32.8391901663051 4.6775956284153  32.5593637020969 4.79625292740047  32.2360086767896 4.79625292740047  L 28.8967462039046 4.79625292740047  L 31.0420824295011 8.01873536299766  C 32.6712942877802 7.23185011709602  34.3813449023861 7.00702576112412  36.1722342733189 7.34426229508197  C 37.950686912509 7.66900858704137  39.4679681851049 8.50897736143638  40.7240780911063 9.86416861826698  Z M 4.141431670282 19.8220140515222  C 5.31048445408532 20.9960967993755  6.71583514099783 21.5831381733021  8.35748373101952 21.5831381733021  C 9.78770788141721 21.5831381733021  11.0500361532899 21.1303669008587  12.1444685466377 20.2248243559719  C 13.2389009399855 19.3192818110851  13.9291395516992 18.1733021077283  14.2151843817787 16.7868852459016  L 8.35748373101952 16.7868852459016  C 7.92219812002892 16.7868852459016  7.58018799710774 16.5932864949258  7.33145336225597 16.2060889929742  C 7.10759219088937 15.8064012490242  7.10137382501808 15.4129586260734  7.31279826464208 15.0257611241218  L 10.0550976138829 9.83606557377049  C 9.4705712219812 9.67369242779079  8.90469992769342 9.59250585480094  8.35748373101952 9.59250585480094  C 6.71583514099783 9.59250585480094  5.31048445408532 10.1795472287276  4.141431670282 11.3536299765808  C 2.97237888647867 12.527712724434  2.38785249457701 13.9391100702576  2.38785249457701 15.5878220140515  C 2.38785249457701 17.2365339578454  2.97237888647867 18.647931303669  4.141431670282 19.8220140515222  Z M 30.4078091106291 19.8220140515222  C 31.5768618944324 20.9960967993755  32.9822125813449 21.5831381733021  34.6238611713666 21.5831381733021  C 36.2655097613883 21.5831381733021  37.6708604483008 20.9960967993755  38.8399132321041 19.8220140515222  C 40.0089660159075 18.647931303669  40.5934924078091 17.2365339578454  40.5934924078091 15.5878220140515  C 40.5934924078091 13.9391100702576  40.0089660159075 12.527712724434  38.8399132321041 11.3536299765808  C 37.6708604483008 10.1795472287276  36.2655097613883 9.59250585480094  34.6238611713666 9.59250585480094  C 33.8776572668113 9.59250585480094  33.1252349963847 9.7423887587822  32.3665943600868 10.0421545667447  L 35.6125813449024 14.9133489461358  C 35.7991323210412 15.2006245120999  35.8613159797542 15.5066354410617  35.7991323210412 15.8313817330211  C 35.7369486623283 16.1561280249805  35.5690527838033 16.4059328649493  35.2954446854664 16.5807962529274  C 35.1088937093275 16.7181889149102  34.885032537961 16.7868852459016  34.6238611713666 16.7868852459016  C 34.188575560376 16.7868852459016  33.8590021691974 16.6057767369243  33.6351409978308 16.2435597189696  L 30.3891540130152 11.3723653395785  C 29.2325379609544 12.5589383294301  28.6542299349241 13.9640905542545  28.6542299349241 15.5878220140515  C 28.6542299349241 17.2365339578454  29.2387563268257 18.647931303669  30.4078091106291 19.8220140515222  Z " fill-rule="nonzero" fill="#000000" stroke="none" transform="matrix(1 0 0 1 752 3548 )" />
  </g>
</svg>