<?xml version="1.0" encoding="utf-8"?>
<svg version="1.1" xmlns:xlink="http://www.w3.org/1999/xlink" width="30px" height="28px" xmlns="http://www.w3.org/2000/svg">
  <g transform="matrix(1 0 0 1 -810 -3546 )">
    <path d="M 26.2794012829651 0.279600570613409  C 27.647897362794 -0.146457441749887  28.7027797576622 -0.0665715644317686  29.4440484675695 0.519258202567761  C 30.0712758374911 1.2116024726581  30.1568068424804 2.19686162624822  29.7006414825374 3.47503566333809  C 29.2444761225944 4.75320970042796  28.4746970776907 5.8982406086543  27.3913043478261 6.91012838801712  L 23.9486813970064 10.1255349500713  L 27.3699215965788 24.0256776034237  C 27.4411974340699 24.2786495482644  27.3556664290805 24.4983357108892  27.1133285816108 24.6847360912981  L 24.376336421953 26.601997146933  C 24.2765502494654 26.6818830242511  24.1411261582324 26.7218259629101  23.9700641482537 26.7218259629101  C 23.9130434782609 26.7218259629101  23.8631503920171 26.715168806467  23.8203848895225 26.7018544935806  C 23.6065573770492 26.6619115549215  23.4568781183179 26.5553970518307  23.3713471133286 26.3823109843081  L 17.4055595153243 16.2368045649073  L 11.8674269422666 21.4094151212553  L 13.0007127583749 25.283880171184  C 13.071988595866 25.510223490252  13.0149679258731 25.7165953399905  12.8296507483963 25.9029957203994  L 10.7769066286529 27.8202567760342  C 10.6486101211689 27.9400855920114  10.4846756949394 28  10.2851033499644 28  L 10.2423378474697 28  C 10.0285103349964 27.9733713742273  9.85744832501782 27.886828340466  9.72915181753386 27.7403708987161  L 5.68781183178902 22.7075606276748  L 0.29935851746258 18.9329529243937  C 0.142551674982181 18.8397527341893  0.0498930862437634 18.6866381359962  0.0213827512473272 18.4736091298146  C 0.00712758374910905 18.300523062292  0.0712758374910905 18.1340941512126  0.213827512473272 17.9743223965763  L 2.26657163221668 16.037089871612  C 2.39486813970064 15.9172610556348  2.55880256593015 15.8573466476462  2.7583749109052 15.8573466476462  C 2.84390591589451 15.8573466476462  2.90092658588738 15.8640038040894  2.92943692088382 15.8773181169757  L 7.07769066286529 16.9358059914408  L 12.615823235923 11.7631954350927  L 1.75338560228083 6.19115549215407  C 1.55381325730577 6.08464098906324  1.43264433357092 5.92486923442701  1.38987883107627 5.71184022824536  C 1.36136849607983 5.49881122206372  1.42551674982181 5.31906799809795  1.58232359230221 5.17261055634807  L 4.31931575196009 2.61626248216833  C 4.51888809693514 2.44317641464574  4.73271560940841 2.38991916310033  4.9607982893799 2.4564907275321  L 19.1803278688525 5.63195435092725  L 22.6015680684248 2.43651925820257  C 23.6849607982894 1.42463147883975  24.9109052031361 0.705658582976699  26.2794012829651 0.279600570613409  Z " fill-rule="nonzero" fill="#000000" stroke="none" transform="matrix(1 0 0 1 810 3546 )" />
  </g>
</svg>