<?xml version="1.0" encoding="utf-8"?>
<svg version="1.1" xmlns:xlink="http://www.w3.org/1999/xlink" width="45px" height="45px" xmlns="http://www.w3.org/2000/svg">
  <g transform="matrix(1 0 0 1 -103 -868 )">
    <path d="M 125.5 869  C 137.54 869  147 878.46  147 890.5  C 147 902.54  137.54 912  125.5 912  C 113.46 912  104 902.54  104 890.5  C 104 878.46  113.46 869  125.5 869  Z " fill-rule="nonzero" fill="#ffffff" stroke="none" />
    <path d="M 125.5 869  C 137.54 869  147 878.46  147 890.5  C 147 902.54  137.54 912  125.5 912  C 113.46 912  104 902.54  104 890.5  C 104 878.46  113.46 869  125.5 869  Z " stroke-width="2" stroke="#000000" fill="none" />
  </g>
</svg>