<?xml version="1.0" encoding="utf-8"?>
<svg version="1.1" xmlns:xlink="http://www.w3.org/1999/xlink" width="24px" height="26px" xmlns="http://www.w3.org/2000/svg">
  <g transform="matrix(1 0 0 1 -394 -934 )">
    <path d="M 18.4447552447552 13  L 22.9090909090909 15.6067708333333  C 23.4237762237762 15.9001736111111  23.7566433566434 16.3374565972222  23.9076923076923 16.9186197916667  C 24.0587412587413 17.4997829861111  23.9888111888112 18.0499131944444  23.6979020979021 18.5690104166667  L 22.6237762237762 20.4309895833333  C 22.3328671328671 20.9500868055556  21.8993006993007 21.2858072916667  21.3230769230769 21.4381510416667  C 20.7468531468531 21.5904947916667  20.2013986013986 21.5199652777778  19.6867132867133 21.2265625  L 15.2223776223776 18.63671875  L 15.2223776223776 23.8333333333333  C 15.2223776223776 24.4201388888889  15.0097902097902 24.9279513888889  14.5846153846154 25.3567708333333  C 14.1594405594406 25.7855902777778  13.6559440559441 26  13.0741258741259 26  L 10.9258741258741 26  C 10.3440559440559 26  9.84055944055944 25.7855902777778  9.41538461538462 25.3567708333333  C 8.99020979020979 24.9279513888889  8.77762237762238 24.4201388888889  8.77762237762238 23.8333333333333  L 8.77762237762238 18.63671875  L 4.31328671328671 21.2265625  C 3.7986013986014 21.5199652777778  3.25314685314685 21.5904947916667  2.67692307692308 21.4381510416667  C 2.1006993006993 21.2858072916667  1.66713286713287 20.9500868055556  1.37622377622378 20.4309895833333  L 0.302097902097902 18.5690104166667  C 0.0111888111888113 18.0499131944444  -0.0587412587412587 17.4997829861111  0.0923076923076923 16.9186197916667  C 0.243356643356643 16.3374565972222  0.576223776223776 15.9001736111111  1.09090909090909 15.6067708333333  L 5.55524475524476 13  L 1.09090909090909 10.3932291666667  C 0.576223776223776 10.0998263888889  0.243356643356643 9.66254340277778  0.0923076923076923 9.08138020833333  C -0.0587412587412587 8.50021701388889  0.0111888111888113 7.95008680555555  0.302097902097902 7.43098958333333  L 1.37622377622378 5.56901041666667  C 1.66713286713287 5.04991319444444  2.1006993006993 4.71419270833333  2.67692307692308 4.56184895833333  C 3.25314685314685 4.40950520833333  3.7986013986014 4.48003472222222  4.31328671328671 4.7734375  L 8.77762237762238 7.36328125  L 8.77762237762238 2.16666666666667  C 8.77762237762238 1.57986111111111  8.99020979020979 1.07204861111111  9.41538461538462 0.643229166666668  C 9.84055944055944 0.21440972222222  10.3440559440559 0  10.9258741258741 0  L 13.0741258741259 0  C 13.6559440559441 0  14.1594405594406 0.21440972222222  14.5846153846154 0.643229166666668  C 15.0097902097902 1.07204861111111  15.2223776223776 1.57986111111111  15.2223776223776 2.16666666666667  L 15.2223776223776 7.36328125  L 19.6867132867133 4.7734375  C 20.2013986013986 4.48003472222222  20.7468531468531 4.40950520833333  21.3230769230769 4.56184895833333  C 21.8993006993007 4.71419270833333  22.3328671328671 5.04991319444444  22.6237762237762 5.56901041666667  L 23.6979020979021 7.43098958333333  C 23.9888111888112 7.95008680555555  24.0587412587413 8.50021701388889  23.9076923076923 9.08138020833333  C 23.7566433566434 9.66254340277778  23.4237762237762 10.0998263888889  22.9090909090909 10.3932291666667  L 18.4447552447552 13  Z " fill-rule="nonzero" fill="#000000" stroke="none" transform="matrix(1 0 0 1 394 934 )" />
  </g>
</svg>