<?xml version="1.0" encoding="utf-8"?>
<svg version="1.1" xmlns:xlink="http://www.w3.org/1999/xlink" width="26px" height="26px" xmlns="http://www.w3.org/2000/svg">
  <g transform="matrix(1 0 0 1 -394 -974 )">
    <path d="M 16.0638020833333 9.93619791666667  C 16.91015625 10.7825520833333  17.3333333333333 11.8038194444444  17.3333333333333 13  C 17.3333333333333 14.1961805555556  16.91015625 15.2174479166667  16.0638020833333 16.0638020833333  C 15.2174479166667 16.91015625  14.1961805555556 17.3333333333333  13 17.3333333333333  C 11.8038194444444 17.3333333333333  10.7825520833333 16.91015625  9.93619791666667 16.0638020833333  C 9.08984375 15.2174479166667  8.66666666666667 14.1961805555556  8.66666666666667 13  C 8.66666666666667 11.8038194444444  9.08984375 10.7825520833333  9.93619791666667 9.93619791666667  C 10.7825520833333 9.08984375  11.8038194444444 8.66666666666667  13 8.66666666666667  C 14.1961805555556 8.66666666666667  15.2174479166667 9.08984375  16.0638020833333 9.93619791666667  Z M 17.62109375 5.02734375  C 16.2105034722222 4.20355902777778  14.6701388888889 3.79166666666667  13 3.79166666666667  C 11.3298611111111 3.79166666666667  9.78949652777778 4.20355902777778  8.37890625 5.02734375  C 6.96831597222222 5.85112847222222  5.85112847222222 6.96831597222222  5.02734375 8.37890625  C 4.20355902777778 9.78949652777778  3.79166666666667 11.3298611111111  3.79166666666667 13  C 3.79166666666667 14.6701388888889  4.20355902777778 16.2105034722222  5.02734375 17.62109375  C 5.85112847222222 19.0316840277778  6.96831597222222 20.1488715277778  8.37890625 20.97265625  C 9.78949652777778 21.7964409722222  11.3298611111111 22.2083333333333  13 22.2083333333333  C 14.6701388888889 22.2083333333333  16.2105034722222 21.7964409722222  17.62109375 20.97265625  C 19.0316840277778 20.1488715277778  20.1488715277778 19.0316840277778  20.97265625 17.62109375  C 21.7964409722222 16.2105034722222  22.2083333333333 14.6701388888889  22.2083333333333 13  C 22.2083333333333 11.3298611111111  21.7964409722222 9.78949652777778  20.97265625 8.37890625  C 20.1488715277778 6.96831597222222  19.0316840277778 5.85112847222222  17.62109375 5.02734375  Z M 24.2565104166667 6.474609375  C 25.4188368055556 8.46636284722222  26 10.6414930555556  26 13  C 26 15.3585069444444  25.4188368055556 17.5336371527778  24.2565104166667 19.525390625  C 23.0941840277778 21.5171440972222  21.5171440972222 23.0941840277778  19.525390625 24.2565104166667  C 17.5336371527778 25.4188368055556  15.3585069444444 26  13 26  C 10.6414930555556 26  8.46636284722222 25.4188368055556  6.474609375 24.2565104166667  C 4.48285590277778 23.0941840277778  2.90581597222222 21.5171440972222  1.74348958333333 19.525390625  C 0.581163194444444 17.5336371527778  0 15.3585069444444  0 13  C 0 10.6414930555556  0.581163194444444 8.46636284722222  1.74348958333333 6.474609375  C 2.90581597222222 4.48285590277778  4.48285590277778 2.90581597222222  6.474609375 1.74348958333333  C 8.46636284722222 0.581163194444442  10.6414930555556 0  13 0  C 15.3585069444444 0  17.5336371527778 0.581163194444442  19.525390625 1.74348958333333  C 21.5171440972222 2.90581597222222  23.0941840277778 4.48285590277778  24.2565104166667 6.474609375  Z " fill-rule="nonzero" fill="#000000" stroke="none" transform="matrix(1 0 0 1 394 974 )" />
  </g>
</svg>