<?xml version="1.0" encoding="utf-8"?>
<svg version="1.1" xmlns:xlink="http://www.w3.org/1999/xlink" width="44px" height="43px" xmlns="http://www.w3.org/2000/svg">
  <g transform="matrix(1 0 0 1 -387 -3953 )">
    <path d="M 409 3953  C 421.32 3953  431 3962.46  431 3974.5  C 431 3986.54  421.32 3996  409 3996  C 396.68 3996  387 3986.54  387 3974.5  C 387 3962.46  396.68 3953  409 3953  Z " fill-rule="nonzero" fill="#d7d7d7" stroke="none" />
    <path d="M 409 3953.5  C 421.04 3953.5  430.5 3962.74  430.5 3974.5  C 430.5 3986.26  421.04 3995.5  409 3995.5  C 396.96 3995.5  387.5 3986.26  387.5 3974.5  C 387.5 3962.74  396.96 3953.5  409 3953.5  Z " stroke-width="1" stroke="#797979" fill="none" />
  </g>
</svg>