<?xml version="1.0" encoding="utf-8"?>
<svg version="1.1" xmlns:xlink="http://www.w3.org/1999/xlink" width="11px" height="14px" xmlns="http://www.w3.org/2000/svg">
  <g transform="matrix(1 0 0 1 -403 -2031 )">
    <path d="M 11 7  C 11 7.1505376344086  10.9327541827542 7.2808105872622  10.7982625482625 7.39081885856079  L 2.91988416988417 13.8349875930521  C 2.78539253539254 13.9449958643507  2.62612612612613 14  2.44208494208494 14  C 2.25804375804376 14  2.09877734877735 13.9449958643507  1.96428571428571 13.8349875930521  L 0.201737451737452 12.393300248139  C 0.0672458172458174 12.2832919768404  0 12.1530190239868  0 12.0024813895782  C 0 11.8519437551696  0.0672458172458174 11.721670802316  0.201737451737452 11.6116625310174  L 5.83976833976834 7  L 0.201737451737452 2.38833746898263  C 0.0672458172458174 2.27832919768403  0 2.14805624483044  0 1.99751861042184  C 0 1.84698097601323  0.0672458172458174 1.71670802315963  0.201737451737452 1.60669975186104  L 1.96428571428571 0.16501240694789  C 2.09877734877735 0.0550041356492963  2.25804375804376 0  2.44208494208494 0  C 2.62612612612613 0  2.78539253539254 0.0550041356492963  2.91988416988417 0.16501240694789  L 10.7982625482625 6.60918114143921  C 10.9327541827542 6.7191894127378  11 6.8494623655914  11 7  Z " fill-rule="nonzero" fill="#aaaaaa" stroke="none" transform="matrix(1 0 0 1 403 2031 )" />
  </g>
</svg>